# xmcd CD database file
# Copyright (C) 1995-1998 Ti Kan
#
# Track frame offsets:
#	182
#	14982
#	27895
#	43462
#	55360
#	66062
#	92182
#	107297
#	122482
#	134785
#	147015
#	162887
#	181307
#	194065
#	210037
#	221600
#	232167
#	240060
#	253055
#	268570
#	276747
#	289365
#	300290
#	308865
#
# Disc length: 4310 seconds
#
# Revision: 4
# Processed by: cddbd v1.4b41PL1 Copyright (c) Steve Scherf et al.
# Submitted via: CDex 1.40Beta0
#
DISCID=6e10d418
DTITLE=Boxcar Willie - Two Sides Of Boxcar
DYEAR=1900
DGENRE=Country
TTITLE0=Freightline Fever
TTITLE1=Truck Drivin' Man
TTITLE2=Phantom 309
TTITLE3=Truck Drivin' Son Of A Gun
TTITLE4=Six Days On The Road
TTITLE5=Teddy Bear
TTITLE6=Whiteline Fever
TTITLE7=Girl On The Billboard
TTITLE8=How Fast Them Truck Will Go
TTITLE9=Truckers' Prayer
TTITLE10=Forty Acres
TTITLE11=Convoy
TTITLE12=Spirit Of America
TTITLE13=Old Kentucky Home
TTITLE14=Dixie
TTITLE15=Thank You Old Flag Of Mine
TTITLE16=America
TTITLE17=North To Alaska
TTITLE18=Play The Star Spangled Banner Over Me
TTITLE19=Battle Hymm Of The Republic
TTITLE20=Star Spangled Banner Waving Somewhere
TTITLE21=Yankee Doodle
TTITLE22=America The Beatiful
TTITLE23=Battle Of New Orleans
EXTD=ID3G:   2
EXTT0=
EXTT1=
EXTT2=
EXTT3=
EXTT4=
EXTT5=
EXTT6=
EXTT7=
EXTT8=
EXTT9=
EXTT10=
EXTT11=
EXTT12=
EXTT13=
EXTT14=
EXTT15=
EXTT16=
EXTT17=
EXTT18=
EXTT19=
EXTT20=
EXTT21=
EXTT22=
EXTT23=
PLAYORDER=
